<svg width="190" height="195" xmlns="http://www.w3.org/2000/svg" preserveAspectRatio="xMidYMid meet" version="1.0">

 <g>
  <title>Layer 1</title>
  <g opacity="0.95" id="svg_1" fill="#000000" transform="translate(0 205) scale(0.1 -0.1)">
   <path id="svg_2" d="m914.50224,1843.24663l0,-189l-37,-6c-70,-11 -167,-46 -224,-81c-77,-46 -172,-150 -214,-233c-31,-62 -40,-91 -60,-183l-5,-28l-180,0l-180,0l0,-35l0,-35l178,0l178,0l12,-77c24,-158 136,-325 271,-407c57,-35 154,-70 224,-81l37,-6l0,-179l0,-180l50,0l50,0l2,182l3,181l62,13c218,44 410,250 445,477l12,77l173,0l173,0l0,35l0,35l-175,0l-175,0l-5,28c-20,92 -29,121 -60,183c-51,100 -146,197 -246,249c-44,23 -108,47 -142,54l-62,13l-3,191l-2,192l-50,0l-50,0l0,-190zm-260,-477c20,-26 22,-37 18,-136c-6,-137 -14,-146 -73,-86c-52,51 -63,91 -46,155c11,40 51,94 70,94c5,0 19,-12 31,-27z"/>
   <path id="svg_3" d="m329.50224,1728.24663c-16,-15 -25,-36 -25,-55c0,-38 39,-80 75,-80c36,0 75,42 75,80c0,38 -39,80 -75,80c-14,0 -37,-11 -50,-25z"/>
   <path id="svg_4" d="m1499.50224,1728.24663c-16,-15 -25,-36 -25,-55c0,-38 39,-80 75,-80c36,0 75,42 75,80c0,38 -39,80 -75,80c-14,0 -37,-11 -50,-25z"/>
   <path id="svg_5" d="m329.50224,548.24663c-16,-15 -25,-36 -25,-55c0,-38 39,-80 75,-80c36,0 75,42 75,80c0,38 -39,80 -75,80c-14,0 -37,-11 -50,-25z"/>
   <path id="svg_6" d="m1499.50224,548.24663c-16,-15 -25,-36 -25,-55c0,-38 39,-80 75,-80c36,0 75,42 75,80c0,38 -39,80 -75,80c-14,0 -37,-11 -50,-25z"/>
  </g>
 </g>
</svg>